<?xml version="1.0" encoding="iso-8859-1"?>
<!-- Generator: Adobe Illustrator 18.0.0, SVG Export Plug-In . SVG Version: 6.00 Build 0)  -->
<!DOCTYPE svg PUBLIC "-//W3C//DTD SVG 1.1//EN" "http://www.w3.org/Graphics/SVG/1.1/DTD/svg11.dtd">
<svg version="1.1" id="Capa_1" xmlns="http://www.w3.org/2000/svg" xmlns:xlink="http://www.w3.org/1999/xlink" x="0px" y="0px"
	 viewBox="0 0 86.109 67.78" style="enable-background:new 0 0 86.109 67.78;fill:#fff;" xml:space="preserve">
<g>
	<path d="M81.796,11.437H63.75l-0.61-4.312l-0.468-2.907c-0.189-1.171-0.809-2.142-1.782-2.953C59.894,0.435,58.828,0,57.656,0
		H28.313c-1.172,0-2.25,0.421-3.235,1.265c-0.984,0.844-1.507,1.834-1.687,2.953l-0.469,2.907l-0.656,4.312H4.313
		C1.922,11.437,0,13.359,0,15.656v47.812c0,2.39,1.922,4.312,4.313,4.312h77.483c2.391,0,4.313-1.922,4.313-4.312V15.656
		C86.109,13.359,84.187,11.437,81.796,11.437z M80.906,62.577H5.157V16.593h17.109c2.578,0,4.804-1.918,5.156-4.406l0.609-4.312
		L28.5,5.203h29.062l0.422,2.672l0.656,4.312c0.378,2.484,2.625,4.406,5.11,4.406h17.156V62.577z"/>
	<path d="M72.562,28.827c2.25,0,4.125-1.921,4.125-4.171c0-2.297-1.828-4.219-4.125-4.219s-4.125,1.922-4.125,4.219
		C68.437,26.906,70.312,28.827,72.562,28.827z"/>
	<path d="M42.984,17.953c-5.296,0-9.89,1.921-13.687,5.718s-5.719,8.391-5.719,13.688c0,5.296,1.922,9.89,5.719,13.687
		s8.391,5.593,13.687,5.672c10.501,0.155,19.53-8.952,19.406-19.359c-0.063-5.344-1.922-9.891-5.718-13.688
		C52.875,19.874,48.328,17.953,42.984,17.953z M53.015,47.437c-2.765,2.765-6.093,4.124-10.031,4.124
		c-3.89,0-7.218-1.359-9.984-4.124c-2.766-2.766-4.125-6.141-4.125-10.078c0-3.891,1.359-7.266,4.125-10.032
		c2.766-2.765,6.094-4.171,9.984-4.171c3.938,0,7.266,1.406,10.031,4.171c2.766,2.766,4.172,6.141,4.172,10.032
		C57.187,41.296,55.781,44.671,53.015,47.437z"/>
</g>
<g>
</g>
<g>
</g>
<g>
</g>
<g>
</g>
<g>
</g>
<g>
</g>
<g>
</g>
<g>
</g>
<g>
</g>
<g>
</g>
<g>
</g>
<g>
</g>
<g>
</g>
<g>
</g>
<g>
</g>
</svg>
